<svg width="15" height="10" viewBox="0 0 15 10" fill="none" xmlns="http://www.w3.org/2000/svg">
<path d="M7.61789 0.0749142C7.4229 0.180113 7.30133 0.38015 7.30133 0.597719V3.98559H0.611912C0.274137 3.98559 0 4.25337 0 4.58331C0 4.91325 0.274137 5.18103 0.611912 5.18103H7.30133V8.5689C7.30133 8.78727 7.4229 8.98731 7.61789 9.09171C7.81289 9.19771 8.05113 9.19053 8.2396 9.07497L14.7144 5.08938C14.8923 4.9794 15 4.78893 15 4.58331C15 4.3777 14.8923 4.18722 14.7144 4.07724L8.2396 0.0916503C8.14006 0.0310814 8.02665 0 7.91324 0C7.81207 0 7.71009 0.0255027 7.61789 0.0749142Z" fill="white"/>
</svg>
