<svg width="12" height="3" viewBox="0 0 12 3" fill="none" xmlns="http://www.w3.org/2000/svg">
<path d="M5.22437 4.24047L5.22336 4.00441C5.22336 3.02332 5.28081 2.12888 5.36735 1.5458L5.44317 1.18322C5.48535 0.991188 5.54081 0.772535 5.59862 0.660914C5.81026 0.252616 6.22407 0 6.66697 0H6.70552C6.99424 0.00954654 7.60078 0.262897 7.60078 0.271709C8.57677 0.681221 10.4597 1.91715 11.3293 2.79826L11.582 3.06279C11.6482 3.13449 11.7226 3.21934 11.7687 3.28548C11.9229 3.48963 12 3.74224 12 3.99486C12 4.27685 11.9135 4.53901 11.7498 4.75344L11.4902 5.03365L11.432 5.09345C10.6429 5.94896 8.58259 7.3479 7.50478 7.77602L7.34206 7.83839C7.14624 7.90857 6.87188 7.99229 6.70552 8C6.49389 8 6.29171 7.9508 6.09898 7.85386C5.85826 7.71801 5.66626 7.50358 5.56008 7.25096C5.49244 7.07619 5.38626 6.55113 5.38626 6.54158C5.28892 6.01217 5.23248 5.17679 5.22437 4.24047ZM0 3.99971C0 3.44087 0.448722 2.98777 1.00217 2.98777L3.46832 3.20587C3.9025 3.20587 4.25449 3.5613 4.25449 3.99971C4.25449 4.43885 3.9025 4.79354 3.46832 4.79354L1.00217 5.01164C0.448722 5.01164 0 4.55855 0 3.99971Z" fill="white"/>
</svg>
