<svg width="14" height="15" viewBox="0 0 14 15" fill="none" xmlns="http://www.w3.org/2000/svg">
<path d="M6.75371 0C8.76367 0 10.4161 1.57943 10.5 3.58074H10.4804C10.4828 3.63892 10.4716 3.69685 10.4477 3.75H10.5648C11.4776 3.75 12.4334 4.38263 12.8166 5.90985L12.8583 6.09005L13.4349 10.7361C13.8499 13.6993 12.2287 14.9455 10.0172 14.9982L9.86886 15H3.6514C1.40383 15 -0.328092 14.181 0.0527106 10.9377L0.0786784 10.7361L0.661979 6.09005C0.949606 4.44539 1.91521 3.79669 2.84559 3.75245L2.94878 3.75H3.00742C2.99753 3.69401 2.99753 3.63673 3.00742 3.58074C3.09129 1.57943 4.74375 0 6.75371 0ZM4.57275 6.24697C4.20667 6.24697 3.90991 6.55241 3.90991 6.9292C3.90991 7.30599 4.20667 7.61143 4.57275 7.61143C4.93883 7.61143 5.23559 7.30599 5.23559 6.9292L5.23043 6.84362C5.18952 6.50723 4.91067 6.24697 4.57275 6.24697ZM8.91436 6.24697C8.54829 6.24697 8.25152 6.55241 8.25152 6.9292C8.25152 7.30599 8.54829 7.61143 8.91436 7.61143C9.28044 7.61143 9.5772 7.30599 9.5772 6.9292C9.5772 6.55241 9.28044 6.24697 8.91436 6.24697ZM6.72431 0.976788C5.28123 0.976788 4.11138 2.14262 4.11138 3.58074C4.12127 3.63673 4.12127 3.69401 4.11138 3.75H9.36991C9.34903 3.69596 9.33797 3.63865 9.33725 3.58074C9.33725 2.14262 8.1674 0.976788 6.72431 0.976788Z" fill="#252525" fill-opacity="0.5"/>
</svg>
