<svg width="12" height="15" viewBox="0 0 12 15" fill="none" xmlns="http://www.w3.org/2000/svg">
<path d="M8.30218 0C10.3346 0 11.977 0.802469 11.9995 2.84239V14.227C11.9995 14.3544 11.9695 14.4819 11.9095 14.5944C11.812 14.7744 11.647 14.9094 11.4446 14.9694C11.2496 15.0294 11.0321 14.9994 10.8521 14.8944L5.99227 12.4645L1.12496 14.8944C1.01321 14.9537 0.884966 14.9919 0.757471 14.9919C0.337487 14.9919 0 14.6469 0 14.227V2.84239C0 0.802469 1.64994 0 3.67486 0H8.30218ZM8.81216 4.52982H3.16488C2.84239 4.52982 2.5799 4.79231 2.5799 5.1223C2.5799 5.45154 2.84239 5.71478 3.16488 5.71478H8.81216C9.13465 5.71478 9.39714 5.45154 9.39714 5.1223C9.39714 4.79231 9.13465 4.52982 8.81216 4.52982Z" fill="white"/>
</svg>
