<svg width="17" height="15" viewBox="0 0 17 15" fill="none" xmlns="http://www.w3.org/2000/svg">
<path d="M10.2917 0C11.1 0.00832408 11.7583 0.424528 12.1417 1.1737C12.2406 1.37139 12.3786 1.66013 12.5232 1.96473L12.6977 2.33304L12.7833 2.51387L12.8667 2.697C12.9 2.75527 12.9583 2.79689 13.0333 2.79689C15.0333 2.79689 16.6667 4.42841 16.6667 6.42619V11.3707C16.6667 13.3685 15.0333 15 13.0333 15H3.63333C1.625 15 0 13.3685 0 11.3707V6.42619C0 4.42841 1.625 2.79689 3.63333 2.79689C3.7 2.79689 3.76667 2.7636 3.79167 2.697L3.84167 2.59711C4.075 2.10599 4.35833 1.50666 4.525 1.1737C4.90833 0.424528 5.55833 0.00832408 6.36667 0H10.2917ZM8.33333 5.33574C7.45833 5.33574 6.63333 5.67703 6.00833 6.30133C5.39167 6.92564 5.05 7.7414 5.05833 8.6071C5.05833 9.48113 5.4 10.2969 6.01667 10.9212C6.64167 11.5372 7.45833 11.8785 8.33333 11.8785C9.23333 11.8785 10.05 11.5122 10.6417 10.9212C11.2333 10.3302 11.6 9.51443 11.6083 8.6071C11.6083 7.7414 11.2667 6.91731 10.65 6.29301C10.0333 5.67703 9.20833 5.33574 8.33333 5.33574ZM8.33333 6.58435C8.875 6.58435 9.38333 6.79245 9.76667 7.17536C10.15 7.55827 10.3583 8.06604 10.3583 8.6071C10.35 9.72253 9.45 10.6299 8.33333 10.6299C7.79167 10.6299 7.28333 10.4218 6.9 10.0388C6.51667 9.65594 6.30833 9.14817 6.30833 8.6071V8.59878C6.3 8.07436 6.50833 7.56659 6.89167 7.18368C7.28333 6.79245 7.79167 6.58435 8.33333 6.58435ZM13.0083 5.13596C12.5917 5.13596 12.2583 5.47725 12.2583 5.89345C12.2583 6.30966 12.5917 6.64262 13.0083 6.64262C13.425 6.64262 13.7667 6.30966 13.7667 5.89345C13.7667 5.47725 13.425 5.13596 13.0083 5.13596Z" fill="white"/>
</svg>
