<svg width="26" height="26" viewBox="0 0 26 26" fill="none" xmlns="http://www.w3.org/2000/svg">
<path fill-rule="evenodd" clip-rule="evenodd" d="M25.0877 5.9162C25.0877 8.63082 22.8861 10.8324 20.1715 10.8324C17.4569 10.8324 15.2565 8.63082 15.2565 5.9162C15.2565 3.20157 17.4569 1 20.1715 1C22.8861 1 25.0877 3.20157 25.0877 5.9162Z" stroke="black" stroke-width="1.5" stroke-linecap="round" stroke-linejoin="round"/>
<path fill-rule="evenodd" clip-rule="evenodd" d="M10.8312 5.9162C10.8312 8.63082 8.63082 10.8324 5.91499 10.8324C3.20157 10.8324 1 8.63082 1 5.9162C1 3.20157 3.20157 1 5.91499 1C8.63082 1 10.8312 3.20157 10.8312 5.9162Z" stroke="black" stroke-width="1.5" stroke-linecap="round" stroke-linejoin="round"/>
<path fill-rule="evenodd" clip-rule="evenodd" d="M25.0877 20.085C25.0877 22.7996 22.8861 25 20.1715 25C17.4569 25 15.2565 22.7996 15.2565 20.085C15.2565 17.3704 17.4569 15.1688 20.1715 15.1688C22.8861 15.1688 25.0877 17.3704 25.0877 20.085Z" stroke="black" stroke-width="1.5" stroke-linecap="round" stroke-linejoin="round"/>
<path fill-rule="evenodd" clip-rule="evenodd" d="M10.8312 20.085C10.8312 22.7996 8.63082 25 5.91499 25C3.20157 25 1 22.7996 1 20.085C1 17.3704 3.20157 15.1688 5.91499 15.1688C8.63082 15.1688 10.8312 17.3704 10.8312 20.085Z" stroke="black" stroke-width="1.5" stroke-linecap="round" stroke-linejoin="round"/>
</svg>
