<svg width="19" height="26" viewBox="0 0 19 26" fill="none" xmlns="http://www.w3.org/2000/svg">
<path fill-rule="evenodd" clip-rule="evenodd" d="M9.52818 25C4.92824 25 1 24.2842 1 21.4175C1 18.5507 4.90332 15.9043 9.52818 15.9043C14.1281 15.9043 18.0564 18.5251 18.0564 21.3918C18.0564 24.2574 14.153 25 9.52818 25Z" stroke="white" stroke-width="1.5" stroke-linecap="round" stroke-linejoin="round"/>
<path fill-rule="evenodd" clip-rule="evenodd" d="M9.51916 11.9318C12.5378 11.9318 14.9845 9.48514 14.9845 6.46646C14.9845 3.44779 12.5378 1 9.51916 1C6.50048 1 4.05266 3.44779 4.05266 6.46646C4.0425 9.47495 6.47216 11.9216 9.48064 11.9318C9.49424 11.9318 9.5067 11.9318 9.51916 11.9318Z" stroke="white" stroke-width="1.5" stroke-linecap="round" stroke-linejoin="round"/>
</svg>
