<svg width="27" height="24" viewBox="0 0 27 24" fill="none" xmlns="http://www.w3.org/2000/svg">
<path d="M21.1413 0C24.1867 0 26.6653 2.45602 26.6653 5.47352L26.6667 9.04327C26.6667 9.30486 26.5613 9.55852 26.3747 9.74348C26.1867 9.92976 25.9333 10.0341 25.6667 10.0341C24.572 10.0341 23.6813 10.9167 23.6813 12.0013C23.6813 13.086 24.572 13.9685 25.6667 13.9685C26.2187 13.9685 26.6667 14.4124 26.6667 14.9594V18.5278C26.6667 21.5453 24.1893 24 21.144 24H5.524C2.47867 24 0 21.5453 0 18.5278V14.9594C0 14.4124 0.448 13.9685 1 13.9685C2.096 13.9685 2.98667 13.086 2.98667 12.0013C2.98667 10.9444 2.132 10.1491 1 10.1491C0.734667 10.1491 0.481333 10.0447 0.293333 9.85842C0.105333 9.67214 0 9.4198 0 9.15821L0.00266667 5.47352C0.00266667 2.45602 2.48 0 5.52533 0H21.1413ZM13.336 6.8713C12.9573 6.8713 12.6187 7.08004 12.4493 7.41561L11.4773 9.36695L9.30933 9.68006C8.93467 9.73291 8.628 9.98657 8.50933 10.3433C8.392 10.7 8.48667 11.0858 8.75867 11.3474L10.3307 12.864L9.96 15.0083C9.896 15.3782 10.0467 15.7455 10.3533 15.9661C10.5267 16.089 10.728 16.1524 10.932 16.1524C11.088 16.1524 11.2453 16.1141 11.3893 16.0388L13.3333 15.0268L15.2733 16.0361C15.6093 16.2145 16.008 16.1867 16.3133 15.9648C16.6213 15.7455 16.772 15.3782 16.708 15.0083L16.336 12.864L17.908 11.3474C18.1813 11.0858 18.276 10.7 18.1573 10.3433C18.04 9.98657 17.7333 9.73291 17.3627 9.68138L15.1907 9.36695L14.2187 7.41693C14.052 7.08136 13.7133 6.87262 13.336 6.8713Z" fill="black"/>
</svg>
