<svg width="29" height="26" viewBox="0 0 29 26" fill="none" xmlns="http://www.w3.org/2000/svg">
<path fill-rule="evenodd" clip-rule="evenodd" d="M27.4452 15.8947C23.7001 15.8947 23.7001 10.104 27.4452 10.104C27.4452 3.39467 27.4452 1 14.2226 1C1 1 1 3.39467 1 10.104C4.74511 10.104 4.74511 15.8947 1 15.8947C1 22.6053 1 25 14.2226 25C27.4452 25 27.4452 22.6053 27.4452 15.8947Z" stroke="white" stroke-width="1.5" stroke-linecap="round" stroke-linejoin="round"/>
<path fill-rule="evenodd" clip-rule="evenodd" d="M14.2226 9.10693C13.2613 9.10693 13.1699 10.6403 12.5984 11.1829C12.0256 11.7243 10.2481 11.1056 10.0004 12.0669C9.75407 13.0296 11.3543 13.3563 11.5527 14.1816C11.7498 15.0069 10.773 16.1669 11.6076 16.7456C12.4436 17.3216 13.343 16.0163 14.2226 16.0163C15.1022 16.0163 16.0016 17.3216 16.8376 16.7456C17.6736 16.1669 16.6954 15.0069 16.8924 14.1816C17.0909 13.3563 18.6911 13.0296 18.4448 12.0669C18.1971 11.1056 16.4196 11.7243 15.8467 11.1829C15.2753 10.6403 15.1839 9.10693 14.2226 9.10693Z" stroke="white" stroke-width="1.5" stroke-linecap="round" stroke-linejoin="round"/>
</svg>
