<svg width="13" height="15" viewBox="0 0 13 15" fill="none" xmlns="http://www.w3.org/2000/svg">
<path d="M12.0235 5.8697C12.4245 5.8697 12.75 6.1904 12.75 6.58715C12.75 9.81497 10.2754 12.4803 7.1019 12.8383V14.2825C7.1019 14.6786 6.77641 15 6.37536 15C5.97359 15 5.64883 14.6786 5.64883 14.2825V12.8383C2.47459 12.4803 0 9.81497 0 6.58715C0 6.1904 0.325489 5.8697 0.726537 5.8697C1.12759 5.8697 1.45307 6.1904 1.45307 6.58715C1.45307 9.26684 3.66102 11.4472 6.37536 11.4472C9.08898 11.4472 11.2969 9.26684 11.2969 6.58715C11.2969 6.1904 11.6224 5.8697 12.0235 5.8697ZM6.50607 0C8.30861 0 9.7704 1.4428 9.7704 3.2228V6.69025C9.7704 8.46953 8.30861 9.91304 6.50607 9.91304H6.24379C4.44125 9.91304 2.98018 8.46953 2.98018 6.69025V3.2228C2.98018 1.4428 4.44125 0 6.24379 0H6.50607Z" fill="#252525" fill-opacity="0.5"/>
</svg>
